<?xml version="1.0" standalone="no"?>
<!DOCTYPE svg PUBLIC "-//W3C//DTD SVG 20010904//EN"
 "http://www.w3.org/TR/2001/REC-SVG-20010904/DTD/svg10.dtd">
<svg version="1.0" xmlns="http://www.w3.org/2000/svg"
 width="200.000000pt" height="200.000000pt" viewBox="0 0 200.000000 200.000000"
 preserveAspectRatio="xMidYMid meet">
<metadata>
Created by potrace 1.14, written by Peter Selinger 2001-2017
</metadata>
<g transform="translate(0.000000,200.000000) scale(0.100000,-0.100000)"
fill="#000000" stroke="none">
<path d="M437 1886 c-55 -15 -91 -45 -118 -98 -18 -36 -19 -70 -19 -789 0
-747 0 -753 21 -797 13 -26 38 -54 62 -70 l41 -27 576 0 576 0 42 28 c23 15
51 45 62 67 19 38 20 57 20 707 l0 669 -162 161 -163 161 -445 1 c-338 0 -456
-3 -493 -13z m913 -168 c7 -173 5 -171 178 -178 l127 -5 0 -645 c0 -719 4
-677 -68 -720 -31 -19 -55 -20 -585 -20 -610 0 -593 -2 -632 63 -19 31 -20 56
-20 786 l0 754 24 32 c50 66 44 65 531 62 l440 -2 5 -127z m160 -23 l105 -105
-96 0 c-78 0 -99 3 -110 17 -16 18 -27 193 -12 193 4 0 55 -47 113 -105z"/>
<path d="M482 1633 l3 -88 368 -3 367 -2 0 90 0 90 -370 0 -371 0 3 -87z m688
2 l0 -45 -320 0 -320 0 0 45 0 45 320 0 320 0 0 -45z"/>
<path d="M491 1421 c-8 -5 -11 -16 -8 -25 6 -14 58 -16 522 -16 499 0 515 1
515 19 0 10 -7 22 -16 25 -25 10 -997 7 -1013 -3z"/>
<path d="M491 1261 c-8 -5 -11 -16 -8 -25 6 -14 58 -16 522 -16 498 0 515 1
515 19 0 11 -9 21 -22 25 -36 9 -992 7 -1007 -3z"/>
<path d="M491 1101 c-8 -5 -11 -16 -8 -25 6 -14 58 -16 522 -16 499 0 515 1
515 19 0 10 -7 22 -16 25 -25 10 -997 7 -1013 -3z"/>
<path d="M491 941 c-8 -5 -11 -16 -8 -25 6 -14 58 -16 522 -16 499 0 515 1
515 19 0 10 -7 22 -16 25 -25 10 -997 7 -1013 -3z"/>
<path d="M493 783 c-10 -3 -13 -66 -13 -264 l0 -259 23 -5 c12 -3 245 -4 517
-3 l495 3 3 259 c2 201 -1 261 -10 268 -14 8 -994 10 -1015 1z m287 -103 l0
-59 -125 1 -125 1 0 58 0 59 125 0 125 0 0 -60z m390 0 l0 -61 -170 1 -170 2
0 59 0 59 170 0 170 0 0 -60z m305 0 l0 -55 -125 0 -125 0 -3 58 -3 58 128 -3
128 -3 0 -55z m-695 -160 l0 -60 -125 0 -125 0 0 60 0 60 125 0 125 0 0 -60z
m390 0 l0 -60 -170 0 -170 0 0 60 0 60 170 0 170 0 0 -60z m305 0 l0 -55 -127
-3 -128 -3 0 61 0 61 128 -3 127 -3 0 -55z m-695 -160 l0 -60 -125 0 -125 0 0
59 0 59 125 1 125 2 0 -61z m390 0 l0 -60 -170 0 -170 0 0 60 0 60 170 0 170
0 0 -60z m305 0 l0 -55 -127 -3 -128 -3 0 54 c0 30 3 57 7 61 4 4 62 6 128 4
l120 -3 0 -55z"/>
</g>
</svg>
